<svg width="29" height="29" viewBox="0 0 29 29" fill="none" xmlns="http://www.w3.org/2000/svg">
<path d="M24.1788 18.5842C22.6925 18.5842 21.2546 18.3425 19.9133 17.9075C19.4904 17.7625 19.0192 17.8713 18.6929 18.1975L16.7958 20.5779C13.3763 18.9467 10.1742 15.8654 8.47042 12.325L10.8267 10.3192C11.1529 9.98083 11.2496 9.50958 11.1167 9.08667C10.6696 7.74542 10.44 6.3075 10.44 4.82125C10.44 4.16875 9.89625 3.625 9.24375 3.625H5.06292C4.41042 3.625 3.625 3.915 3.625 4.82125C3.625 16.0467 12.9654 25.375 24.1788 25.375C25.0367 25.375 25.375 24.6138 25.375 23.9492V19.7804C25.375 19.1279 24.8313 18.5842 24.1788 18.5842Z" fill="#898989"/>
</svg>
